<svg width="308" height="62" viewBox="0 0 308 62" fill="none" xmlns="http://www.w3.org/2000/svg">
<g filter="url(#filter0_d_8_2)">
<path d="M4 25C4 11.1929 15.1929 0 29 0H279C292.807 0 304 11.1929 304 25C304 38.8071 292.807 50 279 50H29C15.1929 50 4 38.8071 4 25Z" fill="#FFF8E4"/>
</g>
<path d="M67.9236 37H62.0936V17.2367L61.1952 15.5133H67.9419L71.3152 22.48L74.5419 29.4283L73.6436 21.27V15.5133H79.4919V37H73.9002L69.5369 28.5117L66.8419 23.195L67.9236 30.235V37ZM91.1333 34.5617C91.0599 34.7328 90.9072 34.9589 90.6749 35.24C90.4549 35.5211 90.1616 35.8328 89.7949 36.175C89.4283 36.505 88.9761 36.7861 88.4383 37.0183C87.9005 37.2628 87.3566 37.385 86.8066 37.385C85.0833 37.385 83.8488 36.8717 83.1033 35.845C82.3699 34.8183 82.0033 33.1072 82.0033 30.7117V24.185L81.3616 23.525V21.4167H88.0166V31.8667C88.0044 32.4167 88.0961 32.8261 88.2916 33.095C88.4872 33.3517 88.8416 33.48 89.3549 33.48C89.4283 33.48 89.4955 33.48 89.5566 33.48C89.6177 33.4678 89.6788 33.4556 89.7399 33.4433C89.8011 33.4189 89.8499 33.4006 89.8866 33.3883C89.9355 33.3761 89.9905 33.3578 90.0516 33.3333C90.1127 33.2967 90.1616 33.2661 90.1983 33.2417C90.2349 33.2172 90.2838 33.1867 90.3449 33.15C90.4061 33.1011 90.4488 33.0644 90.4733 33.04C90.5099 33.0156 90.5588 32.9789 90.6199 32.93C90.6933 32.8689 90.7483 32.8261 90.7849 32.8017V24.185L89.7949 23.525V21.4167H96.7799V37H91.7016L91.1333 34.5617ZM105.224 37H99.3021V25.1383L98.2021 24.46V22.4983L102.144 21.4167H105.26V23.7817C105.322 23.6961 105.407 23.5861 105.517 23.4517C105.639 23.305 105.859 23.0789 106.177 22.7733C106.495 22.4678 106.819 22.1989 107.149 21.9667C107.491 21.7344 107.9 21.5267 108.377 21.3433C108.866 21.1478 109.349 21.05 109.825 21.05C111.048 21.05 111.983 21.2822 112.63 21.7467C113.278 22.2111 113.737 22.9689 114.005 24.02C114.421 23.2989 115.057 22.6267 115.912 22.0033C116.78 21.3678 117.733 21.05 118.772 21.05C119.921 21.05 120.813 21.2517 121.449 21.655C122.097 22.0461 122.567 22.7183 122.86 23.6717C123.154 24.625 123.3 25.9694 123.3 27.705V37H117.342V27.1733C117.342 26.6356 117.214 26.2139 116.957 25.9083C116.7 25.6028 116.309 25.45 115.784 25.45C115.429 25.45 114.947 25.7433 114.335 26.33C114.372 26.9167 114.39 27.5522 114.39 28.2367V37H108.34V27.1733C108.377 26.0244 107.888 25.45 106.874 25.45C106.8 25.45 106.727 25.4561 106.654 25.4683C106.593 25.4806 106.532 25.4928 106.47 25.505C106.422 25.5172 106.36 25.5417 106.287 25.5783C106.226 25.6028 106.171 25.6272 106.122 25.6517C106.073 25.6639 106.018 25.6944 105.957 25.7433C105.896 25.78 105.847 25.8106 105.81 25.835C105.774 25.8594 105.719 25.9022 105.645 25.9633C105.584 26.0122 105.535 26.0489 105.499 26.0733C105.474 26.0978 105.425 26.1406 105.352 26.2017C105.291 26.2506 105.248 26.2872 105.224 26.3117V37ZM135.007 37C133.638 37 132.416 36.7128 131.34 36.1383V37H125.364V16.265L124.264 15.605V13.9L130.149 12.9833H131.34V22.8467C131.536 22.6267 131.75 22.4189 131.982 22.2233C132.214 22.0278 132.495 21.8383 132.825 21.655C133.155 21.4717 133.528 21.325 133.944 21.215C134.372 21.105 134.824 21.05 135.3 21.05C137.317 21.05 138.796 21.7406 139.737 23.1217C140.69 24.5028 141.167 26.4156 141.167 28.86C141.167 30.0089 141.039 31.0722 140.782 32.05C140.525 33.0156 140.147 33.8711 139.645 34.6167C139.144 35.3622 138.497 35.9489 137.702 36.3767C136.92 36.7922 136.022 37 135.007 37ZM132.312 34.4517C133.95 34.4517 134.769 33.1989 134.769 30.6933V27.5767C134.769 26.5256 134.573 25.7189 134.182 25.1567C133.803 24.5822 133.314 24.295 132.715 24.295C132.263 24.295 131.805 24.46 131.34 24.79V34.3233C131.524 34.3722 131.695 34.4089 131.854 34.4333C132.013 34.4456 132.165 34.4517 132.312 34.4517ZM151.308 27.5217C151.308 25.9694 151.229 24.8694 151.07 24.2217C150.911 23.5739 150.618 23.25 150.19 23.25C149.823 23.25 149.524 23.3172 149.291 23.4517C149.059 23.5739 148.888 23.7756 148.778 24.0567C148.668 24.3256 148.595 24.6067 148.558 24.9C148.534 25.1811 148.521 25.5417 148.521 25.9817V27.5217H151.308ZM149.841 37.385C148.473 37.385 147.281 37.1772 146.266 36.7617C145.264 36.3461 144.47 35.7656 143.883 35.02C143.309 34.2744 142.887 33.4372 142.618 32.5083C142.349 31.5672 142.215 30.5222 142.215 29.3733C142.215 26.6356 142.911 24.5639 144.305 23.1583C145.698 21.7528 147.648 21.05 150.153 21.05C152.561 21.05 154.284 21.6183 155.323 22.755C156.362 23.8794 156.881 25.6944 156.881 28.2V30.235H148.503V30.5833C148.503 31.3044 148.576 31.8972 148.723 32.3617C148.882 32.8261 149.108 33.1683 149.401 33.3883C149.695 33.6083 149.994 33.755 150.3 33.8283C150.605 33.9017 150.978 33.9383 151.418 33.9383C151.846 33.9383 152.304 33.8833 152.793 33.7733C153.294 33.6633 153.795 33.4922 154.296 33.26C154.81 33.0278 155.238 32.7528 155.58 32.435L156.661 34.2867C156.209 35.02 155.543 35.6372 154.663 36.1383C153.795 36.6272 152.958 36.9572 152.151 37.1283C151.345 37.2994 150.575 37.385 149.841 37.385ZM164.789 37H158.868V25.1383L157.768 24.46V22.3883L161.709 21.4167H163.194L163.726 25.78C164.227 22.7856 165.834 21.2883 168.547 21.2883C168.853 21.2883 169.171 21.3433 169.501 21.4533L168.878 27.98C168.621 27.7478 168.059 27.6317 167.191 27.6317C165.944 27.6317 165.144 27.9617 164.789 28.6217V37ZM188.504 37C188.358 36.8167 188.04 36.1017 187.551 34.855C187.074 33.5961 186.512 32.1783 185.864 30.6017C185.229 29.0128 184.666 27.8089 184.178 26.99V37H178.109V15.5133H184.178V25.7983L188.743 15.5133H194.848L189.384 25.5967C189.739 25.8411 190.209 26.5072 190.796 27.595C191.383 28.6828 191.933 29.8256 192.446 31.0233C192.959 32.2211 193.491 33.425 194.041 34.635C194.591 35.8328 194.994 36.6211 195.251 37H188.504ZM203.781 35.185C204.319 35.185 204.729 34.965 205.01 34.525C205.303 34.0728 205.45 33.4556 205.45 32.6733V26.88C205.45 24.4967 204.888 23.305 203.763 23.305C203.238 23.305 202.828 23.5189 202.535 23.9467C202.241 24.3744 202.095 24.9794 202.095 25.7617V31.72C202.095 34.03 202.657 35.185 203.781 35.185ZM203.635 37.385C200.836 37.385 198.789 36.7494 197.493 35.4783C196.198 34.2072 195.55 32.1783 195.55 29.3917C195.55 26.6294 196.204 24.5517 197.511 23.1583C198.819 21.7528 200.946 21.05 203.891 21.05C206.764 21.05 208.835 21.7222 210.106 23.0667C211.39 24.3989 212.031 26.4217 212.031 29.135C212.031 31.9461 211.353 34.0239 209.996 35.3683C208.652 36.7128 206.531 37.385 203.635 37.385ZM224.277 37L223.562 34.635C223.464 34.8061 223.348 34.9772 223.214 35.1483C223.091 35.3194 222.89 35.5394 222.609 35.8083C222.328 36.065 222.028 36.2911 221.71 36.4867C221.393 36.6822 220.995 36.8533 220.519 37C220.042 37.1467 219.541 37.22 219.015 37.22C216.999 37.22 215.52 36.5294 214.579 35.1483C213.638 33.7672 213.167 31.8483 213.167 29.3917C213.167 27.8517 213.387 26.4828 213.827 25.285C214.267 24.075 214.958 23.1033 215.899 22.37C216.84 21.6367 217.976 21.27 219.309 21.27C220.103 21.27 220.812 21.3556 221.435 21.5267C222.059 21.6978 222.596 21.9056 223.049 22.15V16.595L221.032 15.9167V13.9L227.522 12.9833H228.952V37H224.277ZM221.692 33.6267C221.912 33.6267 222.138 33.59 222.37 33.5167C222.603 33.4311 222.829 33.315 223.049 33.1683V23.9467C222.67 23.8611 222.321 23.8183 222.004 23.8183C220.378 23.8306 219.559 25.0833 219.547 27.5767V30.1433C219.547 31.2922 219.749 32.16 220.152 32.7467C220.555 33.3333 221.069 33.6267 221.692 33.6267ZM240.396 34.5617C240.323 34.7328 240.17 34.9589 239.938 35.24C239.718 35.5211 239.424 35.8328 239.058 36.175C238.691 36.505 238.239 36.7861 237.701 37.0183C237.163 37.2628 236.619 37.385 236.069 37.385C234.346 37.385 233.112 36.8717 232.366 35.845C231.633 34.8183 231.266 33.1072 231.266 30.7117V24.185L230.624 23.525V21.4167H237.279V31.8667C237.267 32.4167 237.359 32.8261 237.554 33.095C237.75 33.3517 238.104 33.48 238.618 33.48C238.691 33.48 238.758 33.48 238.819 33.48C238.88 33.4678 238.942 33.4556 239.003 33.4433C239.064 33.4189 239.113 33.4006 239.149 33.3883C239.198 33.3761 239.253 33.3578 239.314 33.3333C239.375 33.2967 239.424 33.2661 239.461 33.2417C239.498 33.2172 239.547 33.1867 239.608 33.15C239.669 33.1011 239.712 33.0644 239.736 33.04C239.773 33.0156 239.822 32.9789 239.883 32.93C239.956 32.8689 240.011 32.8261 240.048 32.8017V24.185L239.058 23.525V21.4167H246.043V37H240.964L240.396 34.5617Z" fill="black"/>
<defs>
<filter id="filter0_d_8_2" x="0" y="0" width="308" height="58" filterUnits="userSpaceOnUse" color-interpolation-filters="sRGB">
<feFlood flood-opacity="0" result="BackgroundImageFix"/>
<feColorMatrix in="SourceAlpha" type="matrix" values="0 0 0 0 0 0 0 0 0 0 0 0 0 0 0 0 0 0 127 0" result="hardAlpha"/>
<feOffset dy="4"/>
<feGaussianBlur stdDeviation="2"/>
<feComposite in2="hardAlpha" operator="out"/>
<feColorMatrix type="matrix" values="0 0 0 0 0 0 0 0 0 0 0 0 0 0 0 0 0 0 0.25 0"/>
<feBlend mode="normal" in2="BackgroundImageFix" result="effect1_dropShadow_8_2"/>
<feBlend mode="normal" in="SourceGraphic" in2="effect1_dropShadow_8_2" result="shape"/>
</filter>
</defs>
</svg>
